<svg xmlns="http://www.w3.org/2000/svg" viewBox="0 0 900 420" width="900" height="420">
  <rect width="900" height="420" fill="#F8FAFC"/>
  <text x="450" y="34" font-family="ui-sans-serif,system-ui,sans-serif" font-size="20" font-weight="700" fill="#0F172A" text-anchor="middle">First Layer: Good vs Bad</text>
  <rect x="30" y="55" width="255" height="320" rx="8" fill="#F0FDF4" stroke="#86EFAC" stroke-width="2"/>
  <text x="157" y="80" font-family="ui-sans-serif,system-ui,sans-serif" font-size="15" font-weight="700" fill="#166534" text-anchor="middle">GOOD</text>
  <rect x="50" y="200" width="215" height="30" rx="4" fill="#94A3B8"/>
  <text x="157" y="219" font-family="ui-sans-serif,system-ui,sans-serif" font-size="10" fill="white" text-anchor="middle">build plate</text>
  <rect x="50" y="185" width="215" height="16" rx="2" fill="#4ADE80"/>
  <text x="157" y="197" font-family="ui-sans-serif,system-ui,sans-serif" font-size="9" fill="#14532D" text-anchor="middle">1st layer -- squished just right</text>
  <text x="157" y="290" font-family="ui-sans-serif,system-ui,sans-serif" font-size="12" fill="#166534" text-anchor="middle">Full contact with bed</text>
  <text x="157" y="312" font-family="ui-sans-serif,system-ui,sans-serif" font-size="12" fill="#166534" text-anchor="middle">Smooth shiny surface</text>
  <text x="157" y="334" font-family="ui-sans-serif,system-ui,sans-serif" font-size="12" fill="#166534" text-anchor="middle">Rows fuse together</text>
  <rect x="323" y="55" width="255" height="320" rx="8" fill="#FFF7ED" stroke="#FDBA74" stroke-width="2"/>
  <text x="450" y="80" font-family="ui-sans-serif,system-ui,sans-serif" font-size="14" font-weight="700" fill="#9A3412" text-anchor="middle">TOO FAR FROM BED</text>
  <rect x="343" y="200" width="215" height="30" rx="4" fill="#94A3B8"/>
  <text x="450" y="219" font-family="ui-sans-serif,system-ui,sans-serif" font-size="10" fill="white" text-anchor="middle">build plate</text>
  <rect x="363" y="182" width="22" height="10" rx="2" fill="#FB923C"/>
  <rect x="396" y="182" width="22" height="10" rx="2" fill="#FB923C"/>
  <rect x="429" y="182" width="22" height="10" rx="2" fill="#FB923C"/>
  <rect x="462" y="182" width="22" height="10" rx="2" fill="#FB923C"/>
  <rect x="495" y="182" width="22" height="10" rx="2" fill="#FB923C"/>
  <text x="450" y="290" font-family="ui-sans-serif,system-ui,sans-serif" font-size="12" fill="#9A3412" text-anchor="middle">Gaps between rows</text>
  <text x="450" y="312" font-family="ui-sans-serif,system-ui,sans-serif" font-size="12" fill="#9A3412" text-anchor="middle">Spaghetti / peels off bed</text>
  <text x="450" y="334" font-family="ui-sans-serif,system-ui,sans-serif" font-size="12" fill="#9A3412" text-anchor="middle">Fix: lower Z offset 0.05 mm</text>
  <rect x="616" y="55" width="255" height="320" rx="8" fill="#FEF2F2" stroke="#FCA5A5" stroke-width="2"/>
  <text x="743" y="80" font-family="ui-sans-serif,system-ui,sans-serif" font-size="14" font-weight="700" fill="#991B1B" text-anchor="middle">TOO CLOSE TO BED</text>
  <rect x="636" y="200" width="215" height="30" rx="4" fill="#94A3B8"/>
  <text x="743" y="219" font-family="ui-sans-serif,system-ui,sans-serif" font-size="10" fill="white" text-anchor="middle">build plate</text>
  <rect x="636" y="193" width="215" height="8" rx="1" fill="#F87171"/>
  <text x="743" y="170" font-family="ui-sans-serif,system-ui,sans-serif" font-size="10" fill="#991B1B" text-anchor="middle">nozzle gouging</text>
  <text x="743" y="290" font-family="ui-sans-serif,system-ui,sans-serif" font-size="12" fill="#991B1B" text-anchor="middle">Nozzle gouges build plate</text>
  <text x="743" y="312" font-family="ui-sans-serif,system-ui,sans-serif" font-size="12" fill="#991B1B" text-anchor="middle">Elephant foot shape</text>
  <text x="743" y="334" font-family="ui-sans-serif,system-ui,sans-serif" font-size="12" fill="#991B1B" text-anchor="middle">Fix: raise Z offset 0.05 mm</text>
  <text x="450" y="410" font-family="ui-monospace,monospace" font-size="11" fill="#94A3B8" text-anchor="middle">getting-started-3d-printing -- original diagram -- alienbushman</text>
</svg>